# xmcd
#
# Track frame offsets:
#	150
#	14203
#	20896
#	26922
#	32421
#	38746
#	43373
#	53332
#	61921
#	74092
#	85041
#	96302
#	110424
#
# Disc length: 1630 seconds
#
# Revision: 0
# Processed by: cddbd v1.5.2PL0 Copyright (c) Steve Scherf et al.
# Submitted via: EasyCDDAExtractor 10.2.0.1
#
DISCID=b3065c0d
DTITLE=Willie Nelson - So Much To Do  (compilation 2007)
DYEAR=1900
DGENRE=Country
TTITLE0=Home Motel
TTITLE1=I've Seen All The World I Care To See
TTITLE2=Just Now Falling
TTITLE3=Darkneww On The Face Of The Earth
TTITLE4=If You Can't Undo The Wrong, Undo The Right
TTITLE5=Where My House Lives
TTITLE6=If I Had Only Known
TTITLE7=It's Lonesome Without You
TTITLE8=Following Me Around
TTITLE9=Who Do I Know In Dallas
TTITLE10=I Don't Feel Anything
TTITLE11=So Much To Do
TTITLE12=Jimmy's Rag
EXTD=
EXTT0=
EXTT1=
EXTT2=
EXTT3=
EXTT4=
EXTT5=
EXTT6=
EXTT7=
EXTT8=
EXTT9=
EXTT10=
EXTT11=
EXTT12=
PLAYORDER=
